<?xml version="1.0" standalone="no"?>
<!DOCTYPE svg PUBLIC "-//W3C//DTD SVG 20010904//EN"
 "http://www.w3.org/TR/2001/REC-SVG-20010904/DTD/svg10.dtd">
<svg version="1.0" xmlns="http://www.w3.org/2000/svg"
 width="700.000000pt" height="700.000000pt" viewBox="0 0 700.000000 700.000000"
 preserveAspectRatio="xMidYMid meet">
<metadata>
Created by potrace 1.14, written by Peter Selinger 2001-2017
</metadata>
<g transform="translate(0.000000,700.000000) scale(0.100000,-0.100000)"
fill="#000000" stroke="none">
<path d="M3905 6664 c-49 -25 -268 -135 -485 -245 -597 -300 -685 -348 -1115
-599 -65 -38 -230 -144 -241 -155 -33 -33 -184 -409 -359 -895 -140 -388 -250
-670 -323 -830 -16 -36 -33 -75 -36 -87 -5 -16 20 -90 84 -250 51 -125 98
-241 105 -258 15 -33 83 -201 125 -310 15 -38 60 -149 100 -245 84 -204 161
-393 235 -575 29 -71 77 -186 105 -255 29 -69 67 -161 85 -205 79 -192 246
-578 278 -641 19 -38 43 -76 53 -85 55 -48 334 -161 529 -214 33 -9 74 -20 90
-25 30 -9 217 -59 245 -65 35 -9 567 -146 695 -179 77 -20 190 -52 251 -71 62
-19 121 -35 131 -35 19 0 63 38 63 55 0 4 18 54 39 109 22 56 60 157 86 226
26 69 60 160 77 203 16 43 33 90 38 105 4 15 45 124 90 242 114 302 115 303
146 510 3 19 7 42 9 50 2 8 7 31 10 50 3 19 10 58 15 85 5 28 12 66 15 85 8
45 74 417 80 450 5 25 19 101 30 170 11 59 24 134 29 160 9 48 65 375 71 415
4 22 8 47 10 55 2 8 7 38 11 65 3 28 8 53 10 56 2 4 6 28 9 55 3 27 8 57 11
67 3 10 7 30 9 45 2 15 13 79 24 142 26 148 33 191 86 515 3 17 7 44 9 60 3
17 18 116 35 220 36 229 43 272 46 305 1 14 6 50 10 80 5 30 9 87 9 126 1 68
-1 73 -39 120 -48 60 -352 363 -695 694 -140 135 -366 355 -502 489 -136 135
-253 248 -260 253 -23 14 -41 9 -133 -38z"/>
</g>
</svg>
